<?xml version="1.0" encoding="UTF-8" standalone="no"?>
<!DOCTYPE svg PUBLIC "-//W3C//DTD SVG 1.1//EN" "http://www.w3.org/Graphics/SVG/1.1/DTD/svg11.dtd">
<svg width="100%" height="100%" viewBox="0 0 650 150" version="1.1" xmlns="http://www.w3.org/2000/svg" xmlns:xlink="http://www.w3.org/1999/xlink" xml:space="preserve" xmlns:serif="http://www.serif.com/" style="fill-rule:evenodd;clip-rule:evenodd;stroke-linecap:round;stroke-linejoin:round;">
    <g>
        <path d="M83,55L83,20C83,13.966 87.966,9 94,9C100.034,9 105,13.966 105,20L105,55" style="fill:none;fill-rule:nonzero;stroke:rgb(59,130,246);stroke-width:7.5px;"/>
        <path d="M105,55C135,55 135,90 125,105C115,130 85,135 60,135C30,135 15,115 15,85L15,65" style="fill:none;fill-rule:nonzero;stroke:rgb(59,130,246);stroke-width:7.5px;"/>
        <path d="M15,65L15,60C15,53.966 19.966,49 26,49C32.034,49 37,53.966 37,60L37,65" style="fill:none;fill-rule:nonzero;stroke:rgb(59,130,246);stroke-width:7.5px;"/>
        <path d="M37,65L37,52C37,45.966 41.966,41 48,41C54.034,41 59,45.966 59,52L59,60" style="fill:none;fill-rule:nonzero;stroke:rgb(59,130,246);stroke-width:7.5px;"/>
        <path d="M59,60L59,48C59,41.417 64.417,36 71,36C77.583,36 83,41.417 83,48L83,55" style="fill:none;fill-rule:nonzero;stroke:rgb(59,130,246);stroke-width:7.5px;"/>
        <g transform="matrix(1.235974,0,0,1.686469,-3.118811,-65.545376)">
            <path d="M45,100C58.333,110 71.667,110 85,100" style="fill:none;fill-rule:nonzero;stroke:rgb(59,130,246);stroke-width:6px;"/>
        </g>
    </g>
    <g transform="matrix(1.881921,0,0,1.881921,-57.669414,-68.15337)">
        <circle cx="78" cy="82" r="4.5" style="fill:rgb(59,130,246);"/>
    </g>
    <g transform="matrix(1.881921,0,0,1.881921,-82.268142,-68.15337)">
        <circle cx="78" cy="82" r="4.5" style="fill:rgb(59,130,246);"/>
    </g>
    <g transform="matrix(1,0,0,1,145,112)">
        <text x="0px" y="0px" style="font-family:'Arial-Black', 'Arial', sans-serif;font-weight:900;font-size:82px;fill:rgb(59,130,246);">T<tspan x="54.472px 119.075px 172.146px " y="0px 0px 0px ">APA</tspan></text>
        <text x="236.748px" y="0px" style="font-family:'ArialMT', 'Arial', sans-serif;font-size:82px;fill:rgb(59,130,246);">DELA<tspan x="444.871px " y="0px ">Y</tspan></text>
    </g>
</svg>
